<svg width="27" height="22" viewBox="0 0 27 22" fill="none" xmlns="http://www.w3.org/2000/svg">
<path d="M11.4242 0.264383C12.0322 0.264383 12.6642 0.376383 13.3202 0.600383C13.9762 0.824383 14.5522 1.11238 15.0482 1.46438C14.8882 2.28038 14.7362 3.01638 14.5922 3.67238C14.4642 4.32838 14.3442 4.92838 14.2322 5.47238C14.1202 6.00038 14.0082 6.48838 13.8962 6.93638C13.8002 7.36838 13.7042 7.77638 13.6082 8.16038C13.2242 9.60038 12.8242 10.9044 12.4082 12.0724C12.0082 13.2244 11.5762 14.2644 11.1122 15.1924C10.6642 16.1204 10.1842 16.9444 9.6722 17.6644C9.1762 18.3844 8.6402 19.0164 8.0642 19.5604C7.5042 20.0884 6.9442 20.5204 6.3842 20.8564C5.8242 21.1924 5.3042 21.4084 4.8242 21.5044C4.1842 21.5044 3.5922 21.4324 3.0482 21.2884C2.5042 21.1444 2.0322 20.9444 1.6322 20.6884C1.2482 20.4484 0.944203 20.1524 0.720203 19.8004C0.512203 19.4644 0.408203 19.0884 0.408203 18.6724C0.408203 18.2244 0.520203 17.6644 0.744203 16.9924C0.968203 16.3044 1.3122 15.4964 1.7762 14.5684C1.9682 14.5844 2.1922 14.6324 2.4482 14.7124C2.7042 14.7924 2.9602 14.8884 3.2162 15.0004C3.4722 15.1124 3.7042 15.2404 3.9122 15.3844C4.1202 15.5124 4.2722 15.6404 4.3682 15.7684C3.8562 16.2964 3.4402 16.8804 3.1202 17.5204C2.8002 18.1444 2.6402 18.6884 2.6402 19.1524C2.6402 19.4244 2.6882 19.6644 2.7842 19.8724C2.8962 20.0964 3.0802 20.2964 3.3362 20.4724C4.3122 20.1044 5.2642 19.4164 6.1922 18.4084C7.1202 17.4164 7.9442 16.1764 8.6642 14.6884C9.0962 13.8084 9.4882 12.8004 9.8402 11.6644C10.1922 10.5284 10.4882 9.39238 10.7282 8.25638C10.9842 7.10438 11.1762 6.00838 11.3042 4.96838C11.4482 3.91238 11.5202 3.02438 11.5202 2.30438C11.5202 2.19238 11.5122 2.04038 11.4962 1.84838C11.4962 1.64038 11.4882 1.43238 11.4722 1.22438C11.4722 1.00038 11.4642 0.800383 11.4482 0.624383C11.4322 0.448383 11.4242 0.328383 11.4242 0.264383Z" fill="white"/>
<path d="M14.7775 10.3924C15.7695 8.92038 16.7455 7.56838 17.7055 6.33638C18.6815 5.08838 19.6095 4.01638 20.4895 3.12038C21.3695 2.22438 22.1775 1.52838 22.9135 1.03238C23.6495 0.536383 24.2895 0.288383 24.8335 0.288383C25.0415 0.288383 25.2655 0.368383 25.5055 0.528383C25.7615 0.688383 25.9935 0.896383 26.2015 1.15238C26.4255 1.40838 26.6095 1.68838 26.7535 1.99238C26.8975 2.28038 26.9695 2.56038 26.9695 2.83238C25.9775 3.15238 25.0015 3.57638 24.0415 4.10438C23.0975 4.61638 22.1855 5.21638 21.3055 5.90438C20.4415 6.57638 19.6095 7.32838 18.8095 8.16038C18.0255 8.99238 17.3135 9.88038 16.6735 10.8244C16.9295 11.4804 17.2415 12.1844 17.6095 12.9364C17.9935 13.6724 18.4095 14.3924 18.8575 15.0964C19.3055 15.7844 19.7855 16.4244 20.2975 17.0164C20.8095 17.6084 21.3295 18.0804 21.8575 18.4324C21.7775 18.6084 21.6415 18.7764 21.4495 18.9364C21.2575 19.0964 21.0495 19.2404 20.8255 19.3684C20.6015 19.5124 20.3615 19.6244 20.1055 19.7044C19.8655 19.7844 19.6415 19.8244 19.4335 19.8244C19.0175 19.8244 18.6335 19.6244 18.2815 19.2244C17.9295 18.8404 17.5695 18.2564 17.2015 17.4724C16.8495 16.6724 16.4735 15.6884 16.0735 14.5204C15.6895 13.3364 15.2575 11.9604 14.7775 10.3924ZM11.1535 19.9444C10.5455 19.8004 10.0415 19.5444 9.64145 19.1764C9.24145 18.8244 8.87345 18.3764 8.53745 17.8324C8.68145 17.5284 8.84945 17.1284 9.04145 16.6324C9.24945 16.1364 9.49745 15.5284 9.78545 14.8084C10.0735 14.0724 10.4175 13.2004 10.8175 12.1924C11.2175 11.1684 11.6815 9.97638 12.2095 8.61638C12.5455 7.75238 12.8175 7.02438 13.0255 6.43238C13.2495 5.84038 13.4335 5.26438 13.5775 4.70438C13.7375 4.12838 13.8895 3.49638 14.0335 2.80838C14.1775 2.12038 14.3455 1.24838 14.5375 0.192383C15.2095 0.320383 15.8175 0.616383 16.3615 1.08038C16.9215 1.54438 17.4015 2.10438 17.8015 2.76038C17.6255 2.98438 17.4175 3.32838 17.1775 3.79238C16.9535 4.24038 16.6975 4.78438 16.4095 5.42438C16.1215 6.06438 15.8015 6.77638 15.4495 7.56038C15.0975 8.34438 14.7295 9.17638 14.3455 10.0564C13.4815 11.9764 12.8015 13.7364 12.3055 15.3364C11.8095 16.9204 11.4255 18.4564 11.1535 19.9444Z" fill="white"/>
</svg>
